<svg id="Layer_1" xmlns="http://www.w3.org/2000/svg" viewBox="0 0 24 24">
  <circle fill="#ffffff" cx="12" cy="11.98" r="7.98"/>
  <path fill="#dd3b39" d="m12.25,19.99c-2.05.12-4.15-.64-5.89-2.35-1.35-1.33-2.13-2.95-2.31-4.84-.24-2.49.53-4.66,2.29-6.44,1.33-1.35,2.96-2.14,4.85-2.32,2.49-.23,4.65.53,6.44,2.28,1.3,1.28,2.08,2.84,2.29,4.66.27,2.25-.3,4.28-1.72,6.05-1.69,2.09-3.9,2.81-5.95,2.96Zm-.02-15.96c-.31.01-.62.01-.93.03-.24.02-.47.05-.7.09-.47.08-.93.21-1.38.38-1.29.49-2.39,1.26-3.29,2.32-.76.89-1.29,1.9-1.6,3.02-.09.32-.14.64-.2.97-.04.25-.08.49-.08.74,0,.36,0,.72.03,1.07.02.25.06.49.09.74.07.43.18.84.33,1.25.53,1.49,1.43,2.71,2.68,3.68.88.68,1.86,1.14,2.93,1.41.28.07.56.11.84.15.23.03.45.06.68.07.4,0,.81.02,1.21-.04.26-.04.51-.08.77-.12.45-.08.87-.21,1.29-.38,1.43-.57,2.61-1.48,3.52-2.72.48-.66.86-1.37,1.12-2.15.09-.26.15-.53.22-.8.09-.33.13-.67.16-1.01.02-.17.02-.34.03-.51,0-.02,0-.04,0-.06,0-.12,0-.24,0-.36,0-.01,0-.03,0-.04-.01-.19-.02-.39-.05-.58-.03-.25-.05-.49-.1-.74-.06-.3-.13-.61-.23-.9-.87-2.52-2.56-4.22-5.07-5.11-.26-.09-.54-.16-.81-.22-.27-.06-.53-.1-.8-.14-.21-.03-.43-.03-.65-.05,0,0-.01,0-.02,0Z"/>
  <path fill="#f48183" d="m19.96,12.22s0-.04,0-.06c0,.02,0,.04,0,.06Z"/>
  <path fill="#f48183" d="m19.96,11.8s0-.03,0-.04c0,.01,0,.03,0,.04Z"/>
  <path fill="#f59596" d="m12.24,4.03s-.01,0-.02,0c0,0,.01,0,.02,0Z"/>
  <path fill="#d82b28" d="m19.57,12.19c-.01.22-.02.45-.04.67-.04.37-.11.74-.21,1.1-.38,1.4-1.11,2.6-2.18,3.58-.74.68-1.58,1.2-2.53,1.54-.3.11-.61.2-.92.28-.21.05-.43.09-.65.11-.2.03-.41.04-.61.06-.05,0-.11,0-.16.01-.02,0-.04-.01-.07-.01-.12,0-.24,0-.36,0-.03,0-.06,0-.09.01-.12,0-.23-.01-.35-.02-.1,0-.21-.02-.31-.03-.14-.02-.28-.03-.41-.06-.21-.04-.42-.08-.63-.14-.21-.06-.41-.13-.62-.2-1.21-.44-2.24-1.14-3.09-2.1-.58-.65-1.03-1.39-1.36-2.2-.14-.35-.26-.71-.34-1.08-.05-.24-.1-.47-.14-.71-.03-.16-.04-.32-.04-.49-.01-.32-.02-.64-.01-.96,0-.21.03-.42.07-.63.05-.29.09-.58.17-.87.22-.85.58-1.64,1.08-2.36.92-1.33,2.14-2.27,3.65-2.83.39-.15.79-.26,1.21-.32.25-.04.51-.08.76-.1.27-.02.55-.03.82-.03.23,0,.47.03.7.05.34.03.68.09,1.02.18,2.36.66,4.05,2.12,5.05,4.36.16.36.29.74.37,1.12.05.24.11.49.15.74.03.2.04.4.06.6,0,.09.01.18.02.28,0,.15,0,.3,0,.45Zm-12.98-.14s0,0,.01,0c.15,0,.3,0,.44,0,.2,0,.4,0,.6.06.32.09.51.47.4.79-.07.21-.18.38-.37.49-.19.12-.4.21-.63.26-.15.03-.29.06-.44.07-.14.01-.27,0-.41,0-.13-.01-.26-.04-.39-.07.04.14.07.29.11.43.02.06.03.15.11.17.12.03.23.04.35.07h.02c.12,0,.25,0,.37,0,.02,0,.04,0,.06,0,.12,0,.23-.02.35-.03.24-.02.47-.07.69-.16.45-.18.81-.46,1.06-.88.15-.26.23-.53.17-.83-.05-.29-.22-.51-.47-.67-.18-.11-.38-.16-.61-.19.04-.02.06-.02.08-.03.12-.06.24-.12.34-.19.32-.25.5-.57.4-.99-.08-.32-.27-.56-.57-.7-.16-.07-.32-.12-.5-.13-.19,0-.39-.01-.58,0-.21.02-.41.09-.6.18-.29.13-.55.3-.8.5.13.17.26.33.39.5.03-.03.06-.05.09-.07.2-.15.4-.3.63-.4.16-.07.33-.09.5-.04.22.06.36.21.44.42.02.07.03.14.03.21,0,.13-.09.22-.2.28-.21.13-.44.17-.68.2-.14.02-.29.02-.44.04,0,.24.02.47.03.7Zm8-.08s0,.02,0,.03c0,.12,0,.24,0,.36,0,.02,0,.04,0,.06,0,.06,0,.11.01.17.03.23.09.45.18.66.29.63.79.95,1.48.96.12,0,.25-.02.37-.04.77-.15,1.23-.77,1.25-1.48,0-.17-.02-.34-.07-.51-.14-.49-.44-.81-.94-.94-.2-.05-.4-.04-.6,0-.27.04-.51.16-.69.36,0,0-.02.02-.04.03.03-.27.13-.5.27-.71.39-.58.94-.93,1.62-1.09-.05-.14-.11-.28-.15-.42-.02-.07-.07-.09-.13-.08-.06.01-.13.03-.19.05-.57.19-1.08.48-1.53.86-.54.45-.81,1.04-.85,1.73Zm-2.29-2.08c-.04-.12-.09-.25-.14-.38-.04-.12-.09-.14-.21-.1-.65.19-1.23.53-1.74.97-.33.28-.53.65-.66,1.06-.08.24-.11.49-.12.74,0,.13.01.27.02.4.01.2.06.39.13.57.23.63.65,1.03,1.33,1.11.21.03.42.02.63-.03.62-.15,1.01-.53,1.17-1.15.05-.19.04-.39.02-.58-.03-.26-.11-.5-.27-.72-.18-.25-.43-.4-.72-.47-.17-.04-.34-.04-.51-.02-.29.03-.55.14-.76.35-.02.02-.04.04-.06.05l-.02-.02c.26-.98.95-1.51,1.9-1.78Zm1.31,2.13s.05-.06.05-.09c0-.05-.02-.1-.04-.15-.02-.03-.02-.06,0-.09.03-.05.07-.11.07-.16-.02-.12-.06-.23-.16-.31-.09-.07-.2-.08-.3-.03-.1.05-.16.14-.14.25.02.1.05.21.11.29.14.19.29.37.45.57.03-.12.05-.22-.03-.29Zm.2.09c-.04.06-.13.1-.08.2.07-.06.13-.11.19-.17.13-.13.27-.27.39-.41.07-.08.09-.19.06-.29-.05-.18-.19-.21-.34-.18-.11.02-.18.12-.18.23,0,.02,0,.03-.01.05-.06.09-.04.17,0,.26.02.04.01.06-.02.1-.08.08-.08.14-.02.22Z"/><path class="cls-2" d="m11.74,19.55s.06-.01.09-.01c.12,0,.24,0,.36,0,.02,0,.04,0,.07.01-.17,0-.34,0-.52,0Z"/>
  <path fill="#f16364" d="m19.57,12.19c0-.15,0-.3,0-.45,0,.09.01.19.01.28,0,.06,0,.11-.01.17Z"/>
  <path fill="#f8adae" d="m14.58,12.36s0,.04,0,.06c0-.02,0-.04,0-.06Z"/>
  <path fill="#f8b1b2" d="m6.77,14.31s.04,0,.06,0c-.02,0-.04,0-.06,0Z"/>
  <path fill="#f8adae" d="m14.58,11.97s0,.02,0,.03c0-.01,0-.02,0-.03Z"/>
  <path fill="#f59698" d="m6.58,12.05s0,0,.01,0c0,0,0,0-.01,0Z"/>
  <path fill="#f8b1b2" d="m6.38,14.32s.01,0,.02,0c0,0-.01,0-.02,0Z"/>
  <path fill="#d82b29" d="m16.96,12.7c-.02.15-.03.3-.06.44-.06.3-.39.56-.69.52-.3-.04-.5-.17-.58-.5-.05-.23-.08-.45-.08-.68,0-.09.01-.19.03-.28,0-.02.02-.04.04-.05.19-.09.38-.17.58-.2.32-.05.61.09.7.43.03.11.04.22.06.33Z"/>
  <path fill="#d82b29" d="m10.44,12.21c.16-.06.33-.13.51-.18.19-.05.39-.07.57.05.16.11.25.26.28.45.04.23.02.46-.03.68-.06.27-.34.56-.74.5-.21-.03-.39-.13-.48-.35-.05-.15-.1-.3-.11-.46,0-.17-.01-.33-.01-.5,0-.06.01-.12.02-.2Z"/>
</svg>