<svg width="153" height="94" viewBox="0 0 153 94" fill="none" xmlns="http://www.w3.org/2000/svg">
<g clip-path="url(#clip0_5_99)">
<g opacity="0.27">
<path d="M34.0821 67.8414L118.918 67.8414C137.741 67.8414 153 52.6579 153 33.9282V33.9132C153 15.1834 137.741 -2.28882e-05 118.918 -2.28882e-05L34.0821 -2.28882e-05C15.2591 -2.28882e-05 0 15.1834 0 33.9132V33.9282C0 52.6579 15.2591 67.8414 34.0821 67.8414Z" fill="#8086C1"/>
<path d="M92.4331 54.5671C92.4331 54.5671 89.8404 94.015 132.726 94.015C132.726 94.015 116.476 82.3756 126.229 54.5671H92.4331Z" fill="#8086C1"/>
</g>
<path d="M83.1476 35.3681C83.1476 35.3681 80.5097 38.743 77.1331 41.9828C73.7415 45.2226 77.7662 51.3423 75.1283 51.8373C72.4904 52.3322 70.1087 49.7224 70.998 43.6027C71.4955 39.3579 68.1189 37.618 68.1189 37.618V19.274C68.1189 19.274 78.1431 16.9041 83.1627 21.8989H87.5492V35.3081L83.1627 35.3681H83.1476Z" fill="#F9A160"/>
<path d="M63.3706 33.5232H69.37C70.7568 33.5232 71.9025 34.6481 71.9025 36.0431C71.9025 37.423 70.7719 38.5629 69.37 38.5629H63.3706C61.9838 38.5629 60.8382 37.438 60.8382 36.0431C60.8382 34.6631 61.9688 33.5232 63.3706 33.5232Z" fill="#F9A160"/>
<path d="M63.3706 28.4985H69.37C70.7568 28.4985 71.9025 29.6234 71.9025 31.0183C71.9025 32.3983 70.7719 33.5382 69.37 33.5382H63.3706C61.9838 33.5382 60.8382 32.4133 60.8382 31.0183C60.8382 29.6384 61.9688 28.4985 63.3706 28.4985Z" fill="#F9A160"/>
<path d="M63.3706 23.4738H69.37C70.7568 23.4738 71.9025 24.5987 71.9025 25.9936C71.9025 27.3735 70.7719 28.5135 69.37 28.5135H63.3706C61.9838 28.5135 60.8382 27.3885 60.8382 25.9936C60.8382 24.6137 61.9688 23.4738 63.3706 23.4738Z" fill="#F9A160"/>
<path d="M64.26 18.974H69.6263C70.8774 18.974 71.8874 19.9939 71.8874 21.2239C71.8874 22.4688 70.8623 23.4738 69.6263 23.4738H64.26C63.0089 23.4738 61.9989 22.4538 61.9989 21.2239C61.9989 19.9789 63.0239 18.974 64.26 18.974Z" fill="#F9A160"/>
<path d="M38.7098 35.3681C38.7098 35.3681 36.0718 38.743 32.6953 41.9828C29.3037 45.2226 33.3284 51.3423 30.6905 51.8373C28.0525 52.3322 25.6708 49.7224 26.5602 43.6027C27.0576 39.3579 23.6811 37.618 23.6811 37.618V19.274C23.6811 19.274 33.7052 16.9041 38.7248 21.8989H43.1113V35.3081L38.7248 35.3681H38.7098Z" fill="#F9A160"/>
<path d="M18.9177 33.5232H24.9171C26.3039 33.5232 27.4495 34.6481 27.4495 36.0431C27.4495 37.423 26.319 38.5629 24.9171 38.5629H18.9177C17.5309 38.5629 16.3853 37.438 16.3853 36.0431C16.3853 34.6631 17.5159 33.5232 18.9177 33.5232Z" fill="#F9A160"/>
<path d="M18.9177 28.4985H24.9171C26.3039 28.4985 27.4495 29.6234 27.4495 31.0183C27.4495 32.3983 26.319 33.5382 24.9171 33.5382H18.9177C17.5309 33.5382 16.3853 32.4133 16.3853 31.0183C16.3853 29.6384 17.5159 28.4985 18.9177 28.4985Z" fill="#F9A160"/>
<path d="M18.9177 23.4738H24.9171C26.3039 23.4738 27.4495 24.5987 27.4495 25.9936C27.4495 27.3735 26.319 28.5135 24.9171 28.5135H18.9177C17.5309 28.5135 16.3853 27.3885 16.3853 25.9936C16.3853 24.6137 17.5159 23.4738 18.9177 23.4738Z" fill="#F9A160"/>
<path d="M19.8071 18.974H25.1734C26.4245 18.974 27.4345 19.9939 27.4345 21.2239C27.4345 22.4688 26.4095 23.4738 25.1734 23.4738H19.8071C18.556 23.4738 17.546 22.4538 17.546 21.2239C17.546 19.9789 18.571 18.974 19.8071 18.974Z" fill="#F9A160"/>
<path opacity="0.59" d="M136.615 35.3081C136.615 45.9425 127.947 54.5671 117.26 54.5671C106.572 54.5671 97.9049 45.9425 97.9049 35.3081C97.9049 24.6737 106.572 16.0491 117.26 16.0491C127.947 16.0491 136.615 24.6737 136.615 35.3081Z" fill="#8086C1"/>
<path d="M124.963 44.0376C124.827 44.0376 124.706 43.9926 124.586 43.8876L124.48 43.7826C120.501 39.8679 114.004 39.8679 110.024 43.7826L109.467 43.4227L109.014 42.9577C113.597 38.4579 120.908 38.4579 125.385 42.8677C125.641 43.1227 125.701 43.5727 125.445 43.8276C125.309 43.9626 125.128 44.0526 124.963 44.0526V44.0376Z" fill="#2A3042"/>
<path d="M108.291 32.9832C108.291 34.2581 109.331 35.2931 110.612 35.2931C111.893 35.2931 112.934 34.2581 112.934 32.9832C112.934 31.7083 111.893 30.6733 110.612 30.6733C109.331 30.6733 108.291 31.7083 108.291 32.9832Z" fill="#2A3042"/>
<path d="M121.556 32.9832C121.556 34.2581 122.596 35.2931 123.877 35.2931C125.159 35.2931 126.199 34.2581 126.199 32.9832C126.199 31.7083 125.159 30.6733 123.877 30.6733C122.596 30.6733 121.556 31.7083 121.556 32.9832Z" fill="#2A3042"/>
<path d="M120.636 31.9333C120.546 31.9333 120.44 31.9183 120.35 31.8733C120.033 31.7233 119.898 31.3333 120.048 31.0183C120.124 30.8683 121.918 27.3135 127.163 27.6285C127.525 27.6435 127.796 27.9585 127.766 28.3035C127.751 28.6635 127.435 28.9034 127.088 28.9034C122.671 28.6335 121.224 31.5433 121.209 31.5733C121.104 31.7983 120.862 31.9333 120.621 31.9333H120.636Z" fill="#2A3042"/>
<path d="M113.868 31.9333C113.627 31.9333 113.401 31.7983 113.295 31.5733C113.235 31.4383 111.743 28.6485 107.417 28.9034C107.07 28.9034 106.753 28.6485 106.738 28.3035C106.723 27.9435 106.994 27.6435 107.341 27.6285C112.587 27.3435 114.381 30.8683 114.456 31.0183C114.607 31.3333 114.471 31.7233 114.155 31.8733C114.064 31.9183 113.974 31.9333 113.868 31.9333Z" fill="#2A3042"/>
</g>
<defs>
<clipPath id="clip0_5_99">
<rect width="153" height="94" fill="white"/>
</clipPath>
</defs>
</svg>
