<svg xmlns="http://www.w3.org/2000/svg" viewBox="0 0 24 24">
  <path fill="#6F729C" d="m5.9,4.75c0-.2.08-.39.21-.53.14-.14.32-.22.52-.22h10.73c.19,0,.38.08.52.22.14.14.21.33.21.53s-.08.39-.21.53c-.14.14-.32.22-.52.22H6.64c-.19,0-.38-.08-.52-.22-.14-.14-.21-.33-.21-.53Zm6.1,15.25c-.19,0-.38-.08-.52-.22-.14-.14-.21-.33-.21-.53v-10.19l-2.65,2.72c-.07.07-.15.13-.24.17-.09.04-.19.06-.28.06-.1,0-.2-.02-.29-.05-.09-.04-.17-.09-.24-.17-.07-.07-.12-.16-.16-.25-.04-.09-.05-.19-.05-.29,0-.1.02-.2.06-.29.04-.09.1-.17.17-.24l3.9-4c.06-.06.14-.12.22-.16.14-.06.29-.08.44-.06.15.03.28.1.39.21l3.9,4c.07.07.13.15.17.24.04.09.06.19.06.29,0,.1-.02.2-.05.29-.04.09-.09.18-.16.25-.07.07-.15.13-.24.17-.09.04-.19.06-.29.05-.1,0-.2-.02-.28-.06-.09-.04-.17-.1-.24-.17l-2.65-2.72v10.19c0,.2-.08.39-.21.53-.14.14-.32.22-.52.22Z"/>
</svg>