<svg xmlns="http://www.w3.org/2000/svg" viewBox="0 0 24 24">
  <path d="m12,4c-4.42,0-8,3.58-8,8s3.58,8,8,8,8-3.58,8-8-3.58-8-8-8Zm3.71,5.44c-.12,1.26-.64,4.34-.9,5.75-.11.6-.34.8-.54.82-.46.04-.82-.3-1.26-.6-.7-.46-1.1-.75-1.78-1.2-.79-.52-.28-.81.18-1.27.12-.12,2.17-1.98,2.21-2.15.01-.05,0-.11-.04-.14-.05-.04-.11-.02-.17-.02-.07.02-1.19.76-3.38,2.23-.32.22-.61.33-.86.32-.29,0-.83-.16-1.24-.3-.5-.16-.9-.25-.86-.53.02-.14.22-.29.59-.44,2.34-1.02,3.89-1.69,4.66-2.01,2.22-.93,2.68-1.09,2.98-1.09.06,0,.22.02.31.1.08.06.1.15.11.22,0,.05,0,.19,0,.3Z"/>
</svg>