<svg viewBox="0 0 787 188" fill="none" xmlns="http://www.w3.org/2000/svg">
  <path
      d="M657.786 188H733.715C733.715 188 759.325 164.104 745.356 104.271C744.417 104.271 737.432 179.162 657.786 188Z"
      fill="#4351A3"/>
  <path
      d="M733.245 72.4599C733.245 72.4599 715.465 50.9952 695.056 48.6207C667.944 45.4735 639.63 58.9102 618.207 48.6207C618.207 49.0918 631.707 95.2815 668.507 106.777C705.307 118.273 745.356 104.252 745.356 104.252C745.356 104.252 774.064 94.1884 784.015 61.6993C790.736 39.7823 784.015 -0.0188446 784.015 -0.0188446C784.015 -0.0188446 782.625 20.089 759.794 32.7153C736.963 45.3416 733.245 56.5545 733.245 72.4599Z"
      fill="#4351A3"/>
  <path
      d="M189.146 33.3937C91.8317 8.42381 17.7805 46.755 3.79268 99.5782C-9.68823 150.555 17.0483 187.981 17.0483 187.981H542.015C423.954 169.437 292.994 60.0409 189.146 33.3937ZM58.0543 156.887C52.14 156.887 47.3334 152.062 47.3334 146.126C47.3334 140.19 52.14 135.365 58.0543 135.365C63.9686 135.365 68.7752 140.19 68.7752 146.126C68.7752 152.062 63.9686 156.887 58.0543 156.887Z"
      fill="#4351A3"/>
</svg>
